<svg width="800px" height="800px" viewBox="0 0 32 32" xmlns="http://www.w3.org/2000/svg" xmlns:xlink="http://www.w3.org/1999/xlink">
<g id="css">
<path d="M6 28L4 3H28L26 28L16 31L6 28Z" fill="#1172B8"/>
<path d="M26 5H16V29.5L24 27L26 5Z" fill="#33AADD"/>
<path d="M19.5 17.5H9.5L9 14L17 11.5H9L8.5 8.5H24L23.5 12L17 14.5H23L22 24L16 26L10 24L9.5 19H12.5L13 21.5L16 22.5L19 21.5L19.5 17.5Z" fill="white"/>
</g>
<g id="git-hub">
<path d="m -7.9794841,547.19629 c -10.9321299,-1.4285 -20.3690499,-7.7016 -26.0162699,-17.2939 -1.87961,-3.1927 -3.38391,-7.3029 -4.09943,-11.2009 -0.975171,-5.3125 -0.654,-11.178 0.8926,-16.3015 1.2739,-4.2201 3.29627,-8.1193 6.07611,-11.7149 1.16057,-1.5011 4.28357,-4.626 5.78381,-5.7872 5.51609,-4.2697 11.80491,-6.7762 18.5887399,-7.4087 2.14791,-0.2003 6.12932998,-0.094 8.17663,0.218 10.8468601,1.6536 20.1690401,8.1128 25.5689201,17.7162 5.1137,9.0944 5.77487,20.648 1.73715,30.3555 -4.89144,11.7599 -15.5607,19.8508 -28.26166012,21.4318 -1.94022998,0.2415 -6.54817998,0.2337 -8.44659998,-0.014 z m -4.6273999,-12.3355 c 0.40825,-1.1212 1.01503,-2.016 1.96165,-2.8929 l 0.8105899,-0.751 -0.6508899,-0.091 c -3.57335,-0.4987 -7.44137,-1.768 -9.88241,-3.2429 -4.12392,-2.4918 -6.21048,-7.1356 -6.20986,-13.8207 2.8e-4,-2.9091 0.32023,-4.5331 1.26403,-6.4159 0.64702,-1.2907 0.889,-1.6586 1.77393,-2.697 l 0.65984,-0.7743 -0.35393,-1.3545 c -0.60984,-2.3338 -0.50881,-4.5378 0.32489,-7.0884 l 0.34792,-1.0644 0.9083,0 c 2.00247,0 4.50912,0.9411 7.46028,2.7948 l 1.45497,0.9139 1.62413,-0.3968 c 2.6343499,-0.6435 3.9132799,-0.7723 7.5948499,-0.7651 3.60657998,0.01 4.94317,0.1512 7.57782,0.8177 l 1.37004,0.3465 1.32524,-0.8362 c 2.97792,-1.879 5.6007501,-2.8727 7.5880701,-2.8748 l 0.90975,0 0.28631,0.7897 c 0.99828,2.7535 1.08765,5.6558 0.24882,8.0801 l -0.1823,0.5269 0.87914,1.1043 c 0.99959,1.2555 2.10605,3.4201 2.42543,4.7449 0.94486,3.9193 0.33645,9.6525 -1.39175,13.1148 -1.26479,2.5339 -3.03354,4.2403 -5.87856,5.6713 -1.7323801,0.8713 -5.4513101,1.9669 -8.0511701,2.3718 l -1.06002,0.1651 0.56242,0.4454 c 0.70068,0.5547 1.41249,1.4426 1.85641,2.3156 0.58968,1.1596 0.72568,2.2109 0.72828,5.6293 0.002,2.9329 0.0182,3.1331 0.24258,3.0466 0.13211,-0.051 0.7961,-0.287 1.47553,-0.5245 1.63865,-0.573 4.7476601,-2.158 6.4511401,-3.2889 6.27917,-4.1685 10.90321,-10.4468 12.96008,-17.5964 0.88011,-3.0593 1.24615,-5.6472 1.24615,-8.8105 0,-8.8503 -3.39536,-16.8047 -9.81009,-22.9824 -4.74026,-4.5652 -10.7245401,-7.476 -17.43568012,-8.4809 -2.23640998,-0.3349 -6.65652998,-0.3404 -8.85315998,-0.011 -7.0498499,1.0571 -13.0197599,4.0504 -17.9833199,9.0169 -4.92656,4.9295 -7.9245,10.8739 -9.00812,17.8616 -0.33926,2.1877 -0.33926,6.8669 0,9.0546 0.62353,4.0208 2.06834,8.1845 3.95013,11.3835 3.81132,6.4792 9.81888,11.5186 16.56416,13.8949 l 1.46722,0.5169 0.0793,-3.5218 c 0.0705,-3.1291 0.11194,-3.6112 0.37182,-4.3249 z" fill="#00bcf2" transform="translate(38.649 -477.387)"/>
</g>
<g id="gmail">
<path d="M158 391v-142l-82-63V361q0 30 30 30" fill="#4285f4"/>
<path d="M 154 248l102 77l102-77v-98l-102 77l-102-77" fill="#ea4335"/>
<path d="M354 391v-142l82-63V361q0 30-30 30" fill="#34a853"/><path d="M76 188l82 63v-98l-30-23c-27-21-52 0-52 26" fill="#c5221f"/>
<path d="M436 188l-82 63v-98l30-23c27-21 52 0 52 26" fill="#fbbc04"/>
</g>
<g id='html'>
<path fill="#e34f26" d="M71 460L30 0h451l-41 460-185 52"/>
<path fill="#ef652a" d="M256 472l149-41 35-394H256"/>
<path fill="#ebebeb" d="M256 208h-75l-5-58h80V94H114l15 171h127zm-1 147l-63-17-4-45h-56l7 89 116 32z"/>
<path fill="#ffffff" d="M255 208v57h70l-7 73-63 17v59l116-32 16-174zm0-114v56h137l5-56z"/>
</g>
<g id='js'>
<path d="M18.774,19.7a3.727,3.727,0,0,0,3.376,2.078c1.418,0,2.324-.709,2.324-1.688,0-1.173-.931-1.589-2.491-2.272l-.856-.367c-2.469-1.052-4.11-2.37-4.11-5.156,0-2.567,1.956-4.52,5.012-4.52A5.058,5.058,0,0,1,26.9,10.52l-2.665,1.711a2.327,2.327,0,0,0-2.2-1.467,1.489,1.489,0,0,0-1.638,1.467c0,1.027.636,1.442,2.1,2.078l.856.366c2.908,1.247,4.549,2.518,4.549,5.376,0,3.081-2.42,4.769-5.671,4.769a6.575,6.575,0,0,1-6.236-3.5ZM6.686,20c.538.954,1.027,1.76,2.2,1.76,1.124,0,1.834-.44,1.834-2.15V7.975h3.422V19.658c0,3.543-2.078,5.156-5.11,5.156A5.312,5.312,0,0,1,3.9,21.688Z" style="fill:#f5de19"/>
</g>
<g id='linked'>
<path d="M218.123122,218.127392 L180.191928,218.127392 L180.191928,158.724263 C180.191928,144.559023 179.939053,126.323993 160.463756,126.323993 C140.707926,126.323993 137.685284,141.757585 137.685284,157.692986 L137.685284,218.123441 L99.7540894,218.123441 L99.7540894,95.9665207 L136.168036,95.9665207 L136.168036,112.660562 L136.677736,112.660562 C144.102746,99.9650027 157.908637,92.3824528 172.605689,92.9280076 C211.050535,92.9280076 218.138927,118.216023 218.138927,151.114151 L218.123122,218.127392 Z M56.9550587,79.2685282 C44.7981969,79.2707099 34.9413443,69.4171797 34.9391618,57.260052 C34.93698,45.1029244 44.7902948,35.2458562 56.9471566,35.2436736 C69.1040185,35.2414916 78.9608713,45.0950217 78.963054,57.2521493 C78.9641017,63.090208 76.6459976,68.6895714 72.5186979,72.8184433 C68.3913982,76.9473153 62.7929898,79.26748 56.9550587,79.2685282 M75.9206558,218.127392 L37.94995,218.127392 L37.94995,95.9665207 L75.9206558,95.9665207 L75.9206558,218.127392 Z M237.033403,0.0182577091 L18.8895249,0.0182577091 C8.57959469,-0.0980923971 0.124827038,8.16056231 -0.001,18.4706066 L-0.001,237.524091 C0.120519052,247.839103 8.57460631,256.105934 18.8895249,255.9977 L237.033403,255.9977 C247.368728,256.125818 255.855922,247.859464 255.999,237.524091 L255.999,18.4548016 C255.851624,8.12438979 247.363742,-0.133792868 237.033403,0.000790807055" fill="#0A66C2">

</path>
</g>
<!-- Your existing sprite content goes here -->

 <g id="react">
    <title>frameworks-and-libraries/react</title>
    <desc>Created with Sketch.</desc>
    <defs>

</defs>
    <g id="frameworks-and-libraries/react" stroke="none" stroke-width="1" fill="none" fill-rule="evenodd">
        <g id="container" transform="translate(2.000000, 2.000000)" fill="#FFFFFF" fill-rule="nonzero" stroke="#0C6D87" stroke-width="2">
            <rect id="mask" x="-1" y="-1" width="71" height="71" rx="14">

</rect>
        </g>
        <g id="React-icon" transform="translate(12.000000, 15.000000)" fill="#61DAFB" fill-rule="nonzero">
            <path d="M48.9302846,21.7611789 C48.9302846,18.5243902 44.8768293,15.4569106 38.6621951,13.5546748 C40.0963415,7.22052846 39.4589431,2.18109756 36.6504065,0.567682927 C36.0030488,0.189227642 35.2461382,0.00995934959 34.4195122,0.00995934959 L34.4195122,2.23089431 C34.8776423,2.23089431 35.2461382,2.32052846 35.554878,2.4898374 C36.9093496,3.26666667 37.4969512,6.2245935 37.0388211,10.029065 C36.9292683,10.9652439 36.75,11.9512195 36.5308943,12.9571138 C34.5788618,12.479065 32.447561,12.1105691 30.2067073,11.8715447 C28.8621951,10.029065 27.4678862,8.35589431 26.0636179,6.89186992 C29.3103659,3.87418699 32.3579268,2.22093496 34.4294715,2.22093496 L34.4294715,0 C34.4294715,0 34.4294715,0 34.4294715,0 C31.6906504,0 28.1052846,1.95203252 24.4800813,5.33821138 C20.854878,1.97195122 17.2695122,0.0398373984 14.5306911,0.0398373984 L14.5306911,2.26077236 C16.5922764,2.26077236 19.6497967,3.90406504 22.8965447,6.90182927 C21.5022358,8.36585366 20.1079268,10.029065 18.7833333,11.8715447 C16.5325203,12.1105691 14.4012195,12.479065 12.449187,12.9670732 C12.220122,11.9711382 12.050813,11.0050813 11.9313008,10.0788618 C11.4632114,6.27439024 12.0408537,3.31646341 13.3853659,2.5296748 C13.6841463,2.3504065 14.072561,2.27073171 14.5306911,2.27073171 L14.5306911,0.049796748 C14.5306911,0.049796748 14.5306911,0.049796748 14.5306911,0.049796748 C13.6941057,0.049796748 12.9371951,0.229065041 12.279878,0.607520325 C9.48130081,2.22093496 8.85386179,7.2504065 10.2979675,13.5646341 C4.10325203,15.4768293 0.0697154472,18.5343496 0.0697154472,21.7611789 C0.0697154472,24.9979675 4.12317073,28.0654472 10.3378049,29.9676829 C8.90365854,36.3018293 9.54105691,41.3412602 12.3495935,42.9546748 C12.9969512,43.3331301 13.7538618,43.5123984 14.5904472,43.5123984 C17.3292683,43.5123984 20.9146341,41.5603659 24.5398374,38.174187 C28.1650407,41.5404472 31.7504065,43.472561 34.4892276,43.472561 C35.325813,43.472561 36.0827236,43.2932927 36.7400407,42.9148374 C39.5386179,41.3014228 40.1660569,36.2719512 38.7219512,29.9577236 C44.896748,28.0554878 48.9302846,24.9880081 48.9302846,21.7611789 Z M35.9632114,15.1182927 C35.5947154,16.4030488 35.1365854,17.7276423 34.6186992,19.0522358 C34.2103659,18.2554878 33.7821138,17.4587398 33.3140244,16.6619919 C32.8558943,15.8652439 32.3678862,15.0884146 31.879878,14.3315041 C33.2941057,14.5406504 34.6585366,14.7995935 35.9632114,15.1182927 Z M31.4018293,25.725 C30.625,27.0695122 29.828252,28.3443089 29.001626,29.5294715 C27.5176829,29.6589431 26.0138211,29.7286585 24.5,29.7286585 C22.9961382,29.7286585 21.4922764,29.6589431 20.0182927,29.5394309 C19.1916667,28.3542683 18.3849593,27.0894309 17.6081301,25.754878 C16.8512195,24.4502033 16.1640244,23.1256098 15.5365854,21.7910569 C16.154065,20.4565041 16.8512195,19.1219512 17.5981707,17.8172764 C18.375,16.4727642 19.171748,15.1979675 19.998374,14.0128049 C21.4823171,13.8833333 22.9861789,13.8136179 24.5,13.8136179 C26.0038618,13.8136179 27.5077236,13.8833333 28.9817073,14.0028455 C29.8083333,15.1880081 30.6150407,16.4528455 31.3918699,17.7873984 C32.1487805,19.0920732 32.8359756,20.4166667 33.4634146,21.7512195 C32.8359756,23.0857724 32.1487805,24.4203252 31.4018293,25.725 Z M34.6186992,24.4302846 C35.1565041,25.7648374 35.6146341,27.0993902 35.9930894,28.3941057 C34.6884146,28.7128049 33.3140244,28.9817073 31.8898374,29.1908537 C32.3778455,28.4239837 32.8658537,27.6371951 33.3239837,26.8304878 C33.7821138,26.0337398 34.2103659,25.2270325 34.6186992,24.4302846 Z M24.5199187,35.0569106 C23.5936992,34.100813 22.6674797,33.0351626 21.7512195,31.8699187 C22.647561,31.9097561 23.5638211,31.9396341 24.4900407,31.9396341 C25.4262195,31.9396341 26.352439,31.9197154 27.2587398,31.8699187 C26.3623984,33.0351626 25.4361789,34.100813 24.5199187,35.0569106 Z M17.1101626,29.1908537 C15.695935,28.9817073 14.3315041,28.7227642 13.0268293,28.404065 C13.3953252,27.1193089 13.8534553,25.7947154 14.3713415,24.470122 C14.7796748,25.2668699 15.2079268,26.0636179 15.6760163,26.8603659 C16.1441057,27.6571138 16.6221545,28.4339431 17.1101626,29.1908537 Z M24.470122,8.46544715 C25.3963415,9.42154472 26.322561,10.4871951 27.2388211,11.652439 C26.3424797,11.6126016 25.4262195,11.5827236 24.5,11.5827236 C23.5638211,11.5827236 22.6376016,11.6026423 21.7313008,11.652439 C22.6276423,10.4871951 23.5538618,9.42154472 24.470122,8.46544715 Z M17.1002033,14.3315041 C16.6121951,15.098374 16.124187,15.8851626 15.6660569,16.6918699 C15.2079268,17.4886179 14.7796748,18.2853659 14.3713415,19.0821138 C13.8335366,17.747561 13.3754065,16.4130081 12.9969512,15.1182927 C14.301626,14.8095528 15.6760163,14.5406504 17.1002033,14.3315041 Z M8.08699187,26.8006098 C4.56138211,25.296748 2.28069106,23.3247967 2.28069106,21.7611789 C2.28069106,20.197561 4.56138211,18.2156504 8.08699187,16.721748 C8.94349593,16.353252 9.8796748,16.0245935 10.8457317,15.7158537 C11.4134146,17.6678862 12.1603659,19.6995935 13.0865854,21.7810976 C12.1703252,23.8526423 11.4333333,25.8743902 10.8756098,27.8164634 C9.88963415,27.5077236 8.95345528,27.1691057 8.08699187,26.8006098 Z M13.445122,41.0325203 C12.0906504,40.2556911 11.5030488,37.2977642 11.9611789,33.4932927 C12.0707317,32.5571138 12.25,31.5711382 12.4691057,30.5652439 C14.4211382,31.0432927 16.552439,31.4117886 18.7932927,31.650813 C20.1378049,33.4932927 21.5321138,35.1664634 22.9363821,36.6304878 C19.6896341,39.6481707 16.6420732,41.3014228 14.5705285,41.3014228 C14.1223577,41.2914634 13.7439024,41.2018293 13.445122,41.0325203 Z M37.0686992,33.4434959 C37.5367886,37.2479675 36.9591463,40.2058943 35.6146341,40.9926829 C35.3158537,41.1719512 34.927439,41.251626 34.4693089,41.251626 C32.4077236,41.251626 29.3502033,39.6083333 26.1034553,36.6105691 C27.4977642,35.1465447 28.8920732,33.4833333 30.2166667,31.6408537 C32.4674797,31.4018293 34.5987805,31.0333333 36.550813,30.5453252 C36.779878,31.5512195 36.9591463,32.5172764 37.0686992,33.4434959 Z M40.9030488,26.8006098 C40.0465447,27.1691057 39.1103659,27.4977642 38.1443089,27.8065041 C37.576626,25.8544715 36.8296748,23.8227642 35.9034553,21.7412602 C36.8197154,19.6697154 37.5567073,17.6479675 38.1144309,15.7058943 C39.1004065,16.0146341 40.0365854,16.353252 40.9130081,16.721748 C44.4386179,18.2256098 46.7193089,20.197561 46.7193089,21.7611789 C46.7093496,23.3247967 44.4286585,25.3067073 40.9030488,26.8006098 Z" id="Shape">
</path>
            <circle id="Oval" cx="24.4900407" cy="21.7611789" r="4.55142276">
</circle>
        </g>
    </g>
</g>
<g id="styled">
<title>file_type_styled</title>
<path d="M18.05,29.6c.042-.095.148-.161.225-.241,1.175-1.232,2.36-2.453,3.519-3.7A3.2,3.2,0,0,0,22.808,23a5.925,5.925,0,0,0-.143-.624c-.316.3-.61.573-.906.848-.46.428-.918.858-1.382,1.281a1.931,1.931,0,0,1-2.148.419,1.973,1.973,0,0,1-1.29-1.75,1.04,1.04,0,0,0-.043-.146c-.353.3-.691.576-1.026.86l-6.963,5.9c-.048.041-.1.092-.145.132h9.283l-.014-.009C17.981,29.876,18.007,29.692,18.05,29.6Z" style="fill:#ffcebf"/>
<path d="M8.337,29.6a1.239,1.239,0,0,1,.295-.276l9.636-8.175q.986-.837,1.963-1.683a.523.523,0,0,0,.182-.224,5.364,5.364,0,0,0,.065-2.069c-.1.07-.154.1-.2.149-.789.706-1.574,1.418-2.367,2.12a1.762,1.762,0,0,1-2.048.329,1.889,1.889,0,0,1-1.08-1.807c0-.085,0-.169,0-.324-.145.106-.251.177-.35.257Q8.648,22.529,2.865,27.154c-.174.139-.382.449-.61.148s.119-.425.294-.565q6.165-4.947,12.336-9.885c.67-.537.714-.762.278-1.615l-.26.244c-.713.663-1.434,1.317-2.136,1.991a2.121,2.121,0,0,1-3.585-1.337c-.133.1-.248.173-.357.258l-6.1,4.728a1.485,1.485,0,0,1-.356.258.446.446,0,0,1-.3-.015v8.561H8.325A.365.365,0,0,1,8.337,29.6Z" style="fill:#ffcebf"/>
<path d="M25.237,2.423c-.17.557-.335,1.115-.484,1.678a1.688,1.688,0,0,0,.9,2.09,7.122,7.122,0,0,0,3.818.8V2.518a.73.73,0,0,1,.016-.294.666.666,0,0,1,.105-.149H25.233C25.3,2.153,25.277,2.29,25.237,2.423Z" style="fill:#ff6196"/><path d="M16.482,12.032a2.422,2.422,0,0,1-.5,1.376A22.671,22.671,0,0,1,12.256,17.2a1.442,1.442,0,0,1-1.684.2,1.393,1.393,0,0,1-.843-1.368,1.624,1.624,0,0,1,.417-.947,35.848,35.848,0,0,1,5.019-3.993.71.71,0,0,1,.829-.034A1.041,1.041,0,0,1,16.482,12.032Z" style="fill:#ff87af"/><path d="M15.284,18.093a1.437,1.437,0,0,1,.448-1.2,38.336,38.336,0,0,1,4.87-3.813c.052-.033.1-.066.157-.1a.837.837,0,0,1,1.025.035.861.861,0,0,1,.242.979,4.39,4.39,0,0,1-1.168,1.908c-1.105,1.1-2.252,2.164-3.4,3.22a1.124,1.124,0,0,1-1.364.192A1.512,1.512,0,0,1,15.284,18.093Z" style="fill:#ff87af"/>
<path d="M22.5,18.754c-.28.3-.568.586-.837.893a1.89,1.89,0,0,0-.2.38c.148.044.321.16.441.119.611-.205,1.207-.451,1.878-.71-.146.336-.256.646-.411.93A12.189,12.189,0,0,1,21,23.238q-.532.513-1.105.981a1.484,1.484,0,0,1-2.415-.92,1.1,1.1,0,0,1,.238-.813,22.187,22.187,0,0,1,4.623-3.823.193.193,0,0,1,.065-.013Z" style="fill:#ff87af"/><path d="M24.794,14.771l1.711-7.6,1.2.281-.619,1.881c-.578,1.75-1.163,3.5-1.727,5.252C25.249,14.909,25.105,14.969,24.794,14.771Z" style="fill:#ff6196"/><path d="M22.862,19.241c.181-.691.361-1.33.513-1.976a4.468,4.468,0,0,1,.826-1.721c.243-.319.516-.192.795-.123.258.063.323.252.334.5a2.845,2.845,0,0,1-.588,1.907A4.8,4.8,0,0,1,22.862,19.241Z" style="fill:#ff6196"/><path d="M29.993,2.894a3.623,3.623,0,0,0-.017-.668.291.291,0,0,0-.116-.151A.381.381,0,0,0,29.708,2c-.032-.006-.077.027-.12.074a.666.666,0,0,0-.105.149.73.73,0,0,0-.016.294V6.989a7.122,7.122,0,0,1-3.818-.8,1.688,1.688,0,0,1-.9-2.09c.149-.563.314-1.121.484-1.678.04-.133.063-.27,0-.348a.2.2,0,0,0-.135-.064.3.3,0,0,0-.182.064.434.434,0,0,0-.171.19c-.2.6-.376,1.206-.529,1.818a2.148,2.148,0,0,0-.046.737,2.339,2.339,0,0,0,1.542,2c.189.079.3.157.247.406-.073.316-.144.632-.216.949q-.735,3.222-1.462,6.447a.483.483,0,0,1-.121.257,3.228,3.228,0,0,0-.791.92,4.8,4.8,0,0,0-.53,1.5.981.981,0,0,1-.558.785c-.417.211-.8.484-1.263.768A12.639,12.639,0,0,0,21,17.179a1.062,1.062,0,0,1,.284-.96,4.75,4.75,0,0,0,1.258-2.194,1.294,1.294,0,0,0-1.208-1.7,1.7,1.7,0,0,0-.929.264c-.957.646-1.888,1.332-2.812,2.026-.547.412-1.062.868-1.592,1.3a.418.418,0,0,1-.059-.081.842.842,0,0,0-.059-.214c-.443-.684-.136-1.181.345-1.692A2.793,2.793,0,0,0,17,11.977a1.568,1.568,0,0,0-.327-1.026,1.459,1.459,0,0,0-.438-.363,1.337,1.337,0,0,0-1.517.162l-.279.2c-.637.456-1.282.9-1.895,1.388-.895.712-1.769,1.454-2.626,2.214-.4.353-.692.835-1.107,1.163-2.164,1.709-4.351,3.387-6.53,5.076a1.022,1.022,0,0,0-.205.161.164.164,0,0,0-.016.029c-.046.107-.085.284-.031.349a.141.141,0,0,0,.047.033.446.446,0,0,0,.3.015,1.485,1.485,0,0,0,.356-.258l6.1-4.728c.109-.085.224-.162.357-.258a2.121,2.121,0,0,0,3.585,1.337c.7-.674,1.423-1.328,2.136-1.991l.26-.244c.436.853.392,1.078-.278,1.615Q8.716,21.793,2.549,26.737c-.175.14-.521.267-.294.565s.436-.009.61-.148Q8.651,22.533,14.429,17.9c.1-.08.205-.151.35-.257,0,.155,0,.239,0,.324a1.889,1.889,0,0,0,1.08,1.807,1.762,1.762,0,0,0,2.048-.329c.793-.7,1.578-1.414,2.367-2.12.05-.045.108-.079.2-.149a5.364,5.364,0,0,1-.065,2.069.523.523,0,0,1-.182.224q-.978.845-1.963,1.683L8.632,29.328a1.239,1.239,0,0,0-.295.276.365.365,0,0,0-.012.321v0a.376.376,0,0,0,.32.063.294.294,0,0,0,.116-.065c.05-.04.1-.091.145-.132l6.963-5.9c.335-.284.673-.564,1.026-.86a1.04,1.04,0,0,1,.043.146,1.973,1.973,0,0,0,1.29,1.75,1.931,1.931,0,0,0,2.148-.419c.464-.423.922-.853,1.382-1.281.3-.275.59-.551.906-.848a5.925,5.925,0,0,1,.143.624,3.2,3.2,0,0,1-1.014,2.649c-1.159,1.248-2.344,2.469-3.519,3.7-.077.08-.183.146-.225.241s-.069.281-.019.321l.014.009a.573.573,0,0,0,.338.051.136.136,0,0,0,.081-.051c.028-.029.055-.065.082-.092.952-.984,1.909-1.963,2.854-2.954a13.982,13.982,0,0,0,1.074-1.223,3.411,3.411,0,0,0,.61-3.616.516.516,0,0,1,.074-.386c.065-.112.137-.221.211-.329a4.632,4.632,0,0,0,.587-1,7.547,7.547,0,0,1,1.339-2.4,2.792,2.792,0,0,0,.5-2.469.988.988,0,0,1,0-.489c.506-1.567,1.027-3.129,1.543-4.692q.347-1.05.69-2.094l.213-.647c.454,0,.882-.009,1.308,0,.354.01.462-.156.458-.5C29.985,5.652,29.993,4.273,29.993,2.894ZM12.256,17.2a1.442,1.442,0,0,1-1.684.2,1.393,1.393,0,0,1-.843-1.368,1.624,1.624,0,0,1,.417-.947,35.848,35.848,0,0,1,5.019-3.993.852.852,0,0,1,.326-.14.656.656,0,0,1,.238,0,.763.763,0,0,1,.265.106,1.041,1.041,0,0,1,.488.975,2.422,2.422,0,0,1-.5,1.376A22.671,22.671,0,0,1,12.256,17.2Zm5.2,1.929a1.124,1.124,0,0,1-1.364.192,1.512,1.512,0,0,1-.81-1.224,1.437,1.437,0,0,1,.448-1.2,38.336,38.336,0,0,1,4.87-3.813c.052-.033.1-.066.157-.1a.837.837,0,0,1,1.025.035.861.861,0,0,1,.242.979,4.39,4.39,0,0,1-1.168,1.908C19.753,17.008,18.606,18.069,17.458,19.125Zm5.911,1.241A12.189,12.189,0,0,1,21,23.238q-.532.513-1.105.981a1.484,1.484,0,0,1-2.415-.92,1.1,1.1,0,0,1,.238-.813,22.187,22.187,0,0,1,4.623-3.823.193.193,0,0,1,.065-.013l.1.1c-.28.3-.568.586-.837.893a1.89,1.89,0,0,0-.2.38c.148.044.321.16.441.119.483-.162.958-.35,1.467-.55l.411-.16C23.634,19.772,23.524,20.082,23.369,20.366Zm1.373-2.535a4.363,4.363,0,0,1-1.373,1.152q-.247.138-.507.258c.178-.681.356-1.312.507-1.95l.006-.026a4.468,4.468,0,0,1,.826-1.721c.243-.319.516-.192.795-.123.258.063.323.252.334.5A2.845,2.845,0,0,1,24.742,17.831Zm2.34-8.5c-.578,1.75-1.163,3.5-1.727,5.252-.106.329-.25.389-.561.191l1.483-6.593.228-1.012,1.2.281c-.082.247-.161.49-.241.731Z"/>
</g>
<g id="typescript">
<title>file_type_typescript</title>
<path d="M23.827,8.243A4.424,4.424,0,0,1,26.05,9.524a5.853,5.853,0,0,1,.852,1.143c.011.045-1.534,1.083-2.471,1.662-.034.023-.169-.124-.322-.35a2.014,2.014,0,0,0-1.67-1c-1.077-.074-1.771.49-1.766,1.433a1.3,1.3,0,0,0,.153.666c.237.49.677.784,2.059,1.383,2.544,1.095,3.636,1.817,4.31,2.843a5.158,5.158,0,0,1,.416,4.333,4.764,4.764,0,0,1-3.932,2.815,10.9,10.9,0,0,1-2.708-.028,6.531,6.531,0,0,1-3.616-1.884,6.278,6.278,0,0,1-.926-1.371,2.655,2.655,0,0,1,.327-.208c.158-.09.756-.434,1.32-.761L19.1,19.6l.214.312a4.771,4.771,0,0,0,1.35,1.292,3.3,3.3,0,0,0,3.458-.175,1.545,1.545,0,0,0,.2-1.974c-.276-.395-.84-.727-2.443-1.422a8.8,8.8,0,0,1-3.349-2.055,4.687,4.687,0,0,1-.976-1.777,7.116,7.116,0,0,1-.062-2.268,4.332,4.332,0,0,1,3.644-3.374A9,9,0,0,1,23.827,8.243ZM15.484,9.726l.011,1.454h-4.63V24.328H7.6V11.183H2.97V9.755A13.986,13.986,0,0,1,3.01,8.289c.017-.023,2.832-.034,6.245-.028l6.211.017Z" style="fill:#007acc"/>
</g>
<g id="mongo">
<path d="M84.7409 47.7544C78.7206 19.869 66.1565 12.4436 62.9684 7.19463C61.2356 4.33931 59.4687 0 59.4687 0C59.296 2.47333 58.9897 4.03976 56.9795 5.91949C52.9537 9.68719 35.8456 24.3238 34.4086 56.0098C33.0684 85.5523 55.087 103.772 58.0134 105.655C60.2488 106.809 62.9867 105.677 64.2955 104.619C74.9069 96.9681 89.4237 76.5686 84.7279 47.7544" fill="#10AA50"/>
<path d="M60.3807 89.9189C59.8284 97.2345 59.4305 101.491 58.0249 105.663C58.0249 105.663 58.9515 112.624 59.5954 120H61.891C62.439 114.805 63.2754 109.648 64.396 104.556C61.4224 103.025 60.4932 96.3358 60.3807 89.9189Z" fill="#B8C4C2"/>
<path d="M64.3943 104.561C61.3894 103.104 60.5204 96.2809 60.3869 89.9189C61.1272 79.43 61.3413 68.9075 61.0282 58.395C60.8711 52.8795 61.1067 7.30163 59.7351 0.62915C60.29 1.93452 61.6302 5.00144 62.9704 7.19171C66.1716 12.4434 78.7252 19.8689 84.7403 47.757C89.4283 76.497 74.9979 96.8607 64.3943 104.561Z" fill="#12924F"/>
<path d="M17.8825 146.8V158H16.7465V149.04L12.3465 156.576H11.7865L7.38655 149.088V158H6.25055V146.8H7.22655L12.0905 155.104L16.9065 146.8H17.8825ZM28.5939 158.096C27.4845 158.096 26.4765 157.851 25.5699 157.36C24.6739 156.859 23.9699 156.176 23.4579 155.312C22.9565 154.448 22.7059 153.477 22.7059 152.4C22.7059 151.323 22.9565 150.352 23.4579 149.488C23.9699 148.624 24.6739 147.947 25.5699 147.456C26.4765 146.955 27.4845 146.704 28.5939 146.704C29.7032 146.704 30.7005 146.949 31.5859 147.44C32.4819 147.931 33.1859 148.613 33.6979 149.488C34.2099 150.352 34.4659 151.323 34.4659 152.4C34.4659 153.477 34.2099 154.453 33.6979 155.328C33.1859 156.192 32.4819 156.869 31.5859 157.36C30.7005 157.851 29.7032 158.096 28.5939 158.096ZM28.5939 157.04C29.4792 157.04 30.2792 156.843 30.9939 156.448C31.7085 156.043 32.2685 155.488 32.6739 154.784C33.0792 154.069 33.2819 153.275 33.2819 152.4C33.2819 151.525 33.0792 150.736 32.6739 150.032C32.2685 149.317 31.7085 148.763 30.9939 148.368C30.2792 147.963 29.4792 147.76 28.5939 147.76C27.7085 147.76 26.9032 147.963 26.1779 148.368C25.4632 148.763 24.8979 149.317 24.4819 150.032C24.0765 150.736 23.8739 151.525 23.8739 152.4C23.8739 153.275 24.0765 154.069 24.4819 154.784C24.8979 155.488 25.4632 156.043 26.1779 156.448C26.9032 156.843 27.7085 157.04 28.5939 157.04ZM48.6458 146.8V158H47.6698L40.4698 148.912V158H39.2858V146.8H40.2618L47.4778 155.888V146.8H48.6458ZM62.3555 152.4H63.4915V156.672C62.9689 157.131 62.3502 157.483 61.6355 157.728C60.9209 157.973 60.1689 158.096 59.3795 158.096C58.2595 158.096 57.2515 157.851 56.3555 157.36C55.4595 156.869 54.7555 156.192 54.2435 155.328C53.7315 154.453 53.4755 153.477 53.4755 152.4C53.4755 151.323 53.7315 150.352 54.2435 149.488C54.7555 148.613 55.4595 147.931 56.3555 147.44C57.2515 146.949 58.2649 146.704 59.3955 146.704C60.2489 146.704 61.0329 146.843 61.7475 147.12C62.4622 147.387 63.0649 147.787 63.5555 148.32L62.8195 149.072C61.9342 148.197 60.8089 147.76 59.4435 147.76C58.5369 147.76 57.7155 147.963 56.9795 148.368C56.2542 148.763 55.6835 149.317 55.2675 150.032C54.8515 150.736 54.6435 151.525 54.6435 152.4C54.6435 153.275 54.8515 154.064 55.2675 154.768C55.6835 155.472 56.2542 156.027 56.9795 156.432C57.7049 156.837 58.5209 157.04 59.4275 157.04C60.5795 157.04 61.5555 156.752 62.3555 156.176V152.4ZM73.9046 158.096C72.7953 158.096 71.7873 157.851 70.8806 157.36C69.9846 156.859 69.2806 156.176 68.7686 155.312C68.2673 154.448 68.0166 153.477 68.0166 152.4C68.0166 151.323 68.2673 150.352 68.7686 149.488C69.2806 148.624 69.9846 147.947 70.8806 147.456C71.7873 146.955 72.7953 146.704 73.9046 146.704C75.0139 146.704 76.0113 146.949 76.8966 147.44C77.7926 147.931 78.4966 148.613 79.0086 149.488C79.5206 150.352 79.7766 151.323 79.7766 152.4C79.7766 153.477 79.5206 154.453 79.0086 155.328C78.4966 156.192 77.7926 156.869 76.8966 157.36C76.0113 157.851 75.0139 158.096 73.9046 158.096ZM73.9046 157.04C74.7899 157.04 75.5899 156.843 76.3046 156.448C77.0193 156.043 77.5793 155.488 77.9846 154.784C78.3899 154.069 78.5926 153.275 78.5926 152.4C78.5926 151.525 78.3899 150.736 77.9846 150.032C77.5793 149.317 77.0193 148.763 76.3046 148.368C75.5899 147.963 74.7899 147.76 73.9046 147.76C73.0193 147.76 72.2139 147.963 71.4886 148.368C70.7739 148.763 70.2086 149.317 69.7926 150.032C69.3873 150.736 69.1846 151.525 69.1846 152.4C69.1846 153.275 69.3873 154.069 69.7926 154.784C70.2086 155.488 70.7739 156.043 71.4886 156.448C72.2139 156.843 73.0193 157.04 73.9046 157.04ZM90.9501 146.8H95.5101C96.6941 146.8 97.7395 147.04 98.6461 147.52C99.5528 147.989 100.257 148.651 100.758 149.504C101.259 150.347 101.51 151.312 101.51 152.4C101.51 153.488 101.259 154.459 100.758 155.312C100.257 156.155 99.5528 156.816 98.6461 157.296C97.7395 157.765 96.6941 158 95.5101 158H90.9501V146.8ZM95.4461 156.976C96.4275 156.976 97.2861 156.784 98.0221 156.4C98.7581 156.005 99.3288 155.467 99.7341 154.784C100.139 154.091 100.342 153.296 100.342 152.4C100.342 151.504 100.139 150.715 99.7341 150.032C99.3288 149.339 98.7581 148.8 98.0221 148.416C97.2861 148.021 96.4275 147.824 95.4461 147.824H92.1341V156.976H95.4461ZM113.391 152.224C114.127 152.384 114.692 152.704 115.087 153.184C115.492 153.653 115.695 154.261 115.695 155.008C115.695 155.968 115.338 156.709 114.623 157.232C113.919 157.744 112.874 158 111.487 158H106.335V146.8H111.167C112.415 146.8 113.38 147.051 114.063 147.552C114.756 148.053 115.103 148.763 115.103 149.68C115.103 150.299 114.948 150.827 114.639 151.264C114.34 151.691 113.924 152.011 113.391 152.224ZM107.519 147.776V151.84H111.087C111.994 151.84 112.692 151.669 113.183 151.328C113.674 150.976 113.919 150.469 113.919 149.808C113.919 149.147 113.674 148.645 113.183 148.304C112.692 147.952 111.994 147.776 111.087 147.776H107.519ZM111.471 157.024C112.474 157.024 113.231 156.853 113.743 156.512C114.255 156.171 114.511 155.637 114.511 154.912C114.511 153.515 113.498 152.816 111.471 152.816H107.519V157.024H111.471Z" fill="#BDEBEA"/>
</g>
<g id="nest">
<defs><linearGradient id="a" x1="15.997" y1="993" x2="15.997" y2="1021" gradientTransform="matrix(1, 0, 0, -1, 0, 1023)" gradientUnits="userSpaceOnUse"><stop offset="0" stop-color="#ffb199"/><stop offset="1" stop-color="#ff0844"/></linearGradient></defs><title>file_type_nest_middleware_js</title><path d="M18.488,2a1.753,1.753,0,0,0-.564.1c1.611,1.058-.28,2.594.6,3.9A2.234,2.234,0,0,1,19.6,3.765c.285-.237.467-.322.406-.714C19.91,2.409,19.054,2,18.488,2Zm2.3.414c-.222,1.123-.5,1.164-1.323,1.887a1.82,1.82,0,0,0-.528,2.191c-3.4-1.32-7.758-2.118-10.953.166-1.149.821-1.851,2-3.268,2.481C3.8,9.452,2.9,9.36,2.328,10.268A1.413,1.413,0,0,0,2.384,12.1c.17.175.5.287.636.465.079.1.077.2.152.333a2.586,2.586,0,0,0,.564.828c.146.121.652.239.738.368.107.161-.173.8.062.9.159.073.622-.744.667-.816-.092.643-.213,1.784.51.834.343-.451.364-.6.941-.7a8.36,8.36,0,0,1,9.739,7.506c-.108-.5-.761-1.3-1.369-1.11-.259.08-.355.527-.525.786a3.75,3.75,0,0,1-.785.868,4.657,4.657,0,0,0-.072-1.452c-.182.748-.547,1.989-1.466,1.788a1.652,1.652,0,0,1-1.328-1.142c-.119-.76.684-1.651-.607-1.714-2.59-.127-1.991,3.682-.462,4.675a3.272,3.272,0,0,0-1.015.283A6.893,6.893,0,0,0,19.04,19.889a7.046,7.046,0,0,1-.646,4.79,6.9,6.9,0,0,1-1.23,1.668c-.3.3-.894.63-1.089.941A13.427,13.427,0,0,0,19.6,26.32,11.647,11.647,0,0,1,15.1,30a11.59,11.59,0,0,0,9.3-5.909,11.657,11.657,0,0,1-1.945,4.668,11.531,11.531,0,0,0,4.975-7.783,11.655,11.655,0,0,1,.209,3.5A12.418,12.418,0,0,0,29.53,13.91a15.755,15.755,0,0,0-1.689-3.962A14.838,14.838,0,0,0,26.9,8.554c-.133-.173-.844-.806-.844-1q-.009.029-.015,0c0,3.266-3.5,5.311-6.431,4.463a5,5,0,0,0,4.56-4.288A4.988,4.988,0,0,0,20.789,2.414Z" style="fill-rule:evenodd;fill:url(#a)"/><path d="M14.64,27.114l1.67-1a1.51,1.51,0,0,0,1.31,1.07c.67,0,1.1-.26,1.1-1.29v-7h2v7a2.78,2.78,0,0,1-2.435,3.087,2.839,2.839,0,0,1-.625,0,3.181,3.181,0,0,1-3.07-1.87m7.29-.22,1.67-1a2.23,2.23,0,0,0,2,1.24,1.181,1.181,0,0,0,1.431-.859h0c.007-.03.014-.06.019-.091,0-.7-.56-1-1.49-1.36L25,24.6c-1.48-.63-2.46-1.42-2.46-3.09A2.74,2.74,0,0,1,25.3,18.792h0c.081,0,.161,0,.242.012a3,3,0,0,1,2.91,1.64l-1.59,1a1.39,1.39,0,0,0-1.32-.88.889.889,0,0,0-.993.773.759.759,0,0,0-.007.107c0,.61.38.86,1.26,1.24l.51.22C28,23.654,29,24.414,29,26.134s-1.45,2.85-3.39,2.85a3.929,3.929,0,0,1-3.73-2.09" style="fill:#f7df1e"/>
</g>
<g id="testimony">
<g>
	<g>
		<path d="M294.625,118.769L158.178,39.991c-6.161-3.557-13.881-2.919-19.373,1.599l-74.254,61.09
			c-9.193,7.564-7.998,22.004,2.309,27.955l45.769,26.425c-6.584,26.22,4.599,54.635,29.186,68.83
			c24.631,14.223,54.811,9.644,74.201-9.139l45.769,26.424c10.247,5.915,23.4-0.168,25.365-11.978l15.777-94.851
			C304.092,129.329,300.785,122.325,294.625,118.769z"/>
	</g>
</g>
<g>
	<g>
		<path d="M431.187,410.754h-83.633l54.764-94.865c27.251,3.748,51.349-17.539,51.349-44.77c0-27.256-24.117-48.514-51.351-44.771
			L295.512,41.345c-15.718-37.103-63.635-55.01-101.017-29.17c-3.42,2.364-3.169,7.509,0.43,9.588l74.813,43.193l103.036,178.481
			c-12.66,16.345-12.68,38.997-0.003,55.37l-64.625,111.948H205.943c-9.424,0-17.064,7.64-17.064,17.064v67.118
			c0,9.424,7.64,17.064,17.064,17.064h225.243c9.424,0,17.064-7.64,17.064-17.064v-67.118
			C448.251,418.394,440.611,410.754,431.187,410.754z"/>
	</g>
</g>
</g>
<g id="telegram">
 		<g>
				<path d="M128,0 C57.307,0 0,57.307 0,128 L0,128 C0,198.693 57.307,256 128,256 L128,256 C198.693,256 256,198.693 256,128 L256,128 C256,57.307 198.693,0 128,0 L128,0 Z" fill="#40B3E0">

</path>
				<path d="M190.2826,73.6308 L167.4206,188.8978 C167.4206,188.8978 164.2236,196.8918 155.4306,193.0548 L102.6726,152.6068 L83.4886,143.3348 L51.1946,132.4628 C51.1946,132.4628 46.2386,130.7048 45.7586,126.8678 C45.2796,123.0308 51.3546,120.9528 51.3546,120.9528 L179.7306,70.5928 C179.7306,70.5928 190.2826,65.9568 190.2826,73.6308" fill="#FFFFFF">

</path>
				<path d="M98.6178,187.6035 C98.6178,187.6035 97.0778,187.4595 95.1588,181.3835 C93.2408,175.3085 83.4888,143.3345 83.4888,143.3345 L161.0258,94.0945 C161.0258,94.0945 165.5028,91.3765 165.3428,94.0945 C165.3428,94.0945 166.1418,94.5735 163.7438,96.8115 C161.3458,99.0505 102.8328,151.6475 102.8328,151.6475" fill="#D2E5F1">

</path>
				<path d="M122.9015,168.1154 L102.0335,187.1414 C102.0335,187.1414 100.4025,188.3794 98.6175,187.6034 L102.6135,152.2624" fill="#B5CFE4">

</path>
		</g>
</g>
</svg>